REMGENRE "Rock " Roll"
REM DATE 2013
REM &ISCID 12345678B
R01 00:00:00
  1RACK 2 AUDIO
 9pb4"
PERFORMER "Супер группа"
TITLE "Альб5    
    INDEX 01007WAVE
  TRACK 1 AUDIO
    TITLE "Трек 01"
    IN00:00:00
  TRACK 2 AUDIO
    TITLE "Трек 02"
    INDEX 01 03:39:10
    REM DATE 07.08.20  TRACK 3 AUDIO
    TITLE "Трек 03"
    REM DATE 2011/04/05    
    INDEX 01 09:25:42
  TRACK 4 AUDIO
    TITLE "Трек 04"
    INDEX 01 12:04:72
